<svg id="Layer_1" data-name="Layer 1" xmlns="http://www.w3.org/2000/svg" viewBox="0 0 128 128"><title>DRAWING BOARD</title><path d="M80.2,54.322a1.75,1.75,0,0,0-.531-2.417L64.943,42.481a1.75,1.75,0,0,0-1.887,0L48.331,51.9a1.75,1.75,0,1,0,1.887,2.948l1.369-.876V68.712a1.75,1.75,0,0,0,1.75,1.75H74.664a1.75,1.75,0,0,0,1.75-1.75V53.976l1.369.876a1.75,1.75,0,0,0,2.417-.531Zm-7.287,12.64H55.086V51.737L64,46.033l8.914,5.7Z"/><path d="M115,20.217H97.75V16.282A1.75,1.75,0,0,0,96,14.532H78.639V13a1.75,1.75,0,0,0-1.75-1.75H51.111A1.75,1.75,0,0,0,49.361,13v1.532H32a1.75,1.75,0,0,0-1.75,1.75v3.935H13a1.75,1.75,0,0,0-1.75,1.75v65.64A1.75,1.75,0,0,0,13,89.357H29.582l-7.346,25.152a1.75,1.75,0,0,0,1.68,2.241H30.25a1.75,1.75,0,0,0,1.68-1.259l2.139-7.323H93.932l2.139,7.323a1.75,1.75,0,0,0,1.68,1.259h6.333a1.75,1.75,0,0,0,1.68-2.241L98.418,89.357H115a1.75,1.75,0,0,0,1.75-1.75V21.967A1.75,1.75,0,0,0,115,20.217ZM94.25,18.032v2.185H78.639V18.032ZM75.139,14.75v8.826H52.861V14.75ZM33.75,18.032H49.361v2.185H33.75ZM28.938,113.25H26.25l6.978-23.893h2.688Zm6.153-8.583,4.471-15.311H88.438l4.471,15.311Zm66.659,8.583H99.062L92.084,89.357h2.688Zm11.5-27.393H14.75V23.717H49.361v1.609a1.75,1.75,0,0,0,1.75,1.75H76.889a1.75,1.75,0,0,0,1.75-1.75V23.717H113.25Z"/><path d="M86.625,71.208a1.75,1.75,0,0,0-1.75,1.75v4.25h-4.25a1.75,1.75,0,0,0,0,3.5h6a1.75,1.75,0,0,0,1.75-1.75v-6A1.75,1.75,0,0,0,86.625,71.208Z"/><path d="M69.542,77.208H58.458a1.75,1.75,0,0,0,0,3.5H69.542a1.75,1.75,0,0,0,0-3.5Z"/><path d="M47.375,77.208h-4.25v-4.25a1.75,1.75,0,0,0-3.5,0v6a1.75,1.75,0,0,0,1.75,1.75h6a1.75,1.75,0,0,0,0-3.5Z"/><path d="M41.375,63.625a1.75,1.75,0,0,0,1.75-1.75V50.792a1.75,1.75,0,0,0-3.5,0V61.875A1.75,1.75,0,0,0,41.375,63.625Z"/><path d="M41.375,41.458a1.75,1.75,0,0,0,1.75-1.75v-4.25h4.25a1.75,1.75,0,1,0,0-3.5h-6a1.75,1.75,0,0,0-1.75,1.75v6A1.75,1.75,0,0,0,41.375,41.458Z"/><path d="M58.458,35.458H69.542a1.75,1.75,0,1,0,0-3.5H58.458a1.75,1.75,0,1,0,0,3.5Z"/><path d="M86.625,31.958h-6a1.75,1.75,0,0,0,0,3.5h4.25v4.25a1.75,1.75,0,0,0,3.5,0v-6A1.75,1.75,0,0,0,86.625,31.958Z"/><path d="M86.625,49.042a1.75,1.75,0,0,0-1.75,1.75V61.875a1.75,1.75,0,0,0,3.5,0V50.792A1.75,1.75,0,0,0,86.625,49.042Z"/></svg>