<svg xmlns="http://www.w3.org/2000/svg" width="47.999" height="48" viewBox="0 0 47.999 48">
  <g>
    <path d="M5.818,18.247A5.958,5.958,0,0,0,11.769,24.2h4.715v4.363H12.363a.728.728,0,1,0,0,1.456h4.849a.729.729,0,0,0,.728-.727V17.653a.728.728,0,0,0-1.456,0v5.09H11.769a4.493,4.493,0,0,1-.853-8.9.728.728,0,0,0,.5-1.072,3.7,3.7,0,0,1,5.7-4.556.727.727,0,0,0,1.21-.444,7.248,7.248,0,1,1,14.31,2.275.727.727,0,0,0,.867.844,5.993,5.993,0,1,1,1.23,11.858H31.516v-5.09a.728.728,0,0,0-1.455,0V29.291a.728.728,0,0,0,.727.727h4.849a.728.728,0,1,0,0-1.456H31.516V24.2h3.216A7.45,7.45,0,1,0,34.2,9.319c.016-.206.023-.41.023-.611A8.7,8.7,0,0,0,17.112,6.433,5.151,5.151,0,0,0,9.769,12.65,5.95,5.95,0,0,0,5.818,18.247Z" fill="#1a171b"/>
    <circle cx="39.516" cy="29.29" r="0.727" fill="#1a171b"/>
    <circle cx="8.483" cy="29.29" r="0.727" fill="#1a171b"/>
    <circle cx="24" cy="33.169" r="0.728" fill="#1a171b"/>
    <path d="M44.363,5.818H37.577a.728.728,0,1,0,0,1.455h6.786a2.186,2.186,0,0,1,2.183,2.182V35.879H1.455V9.455A2.185,2.185,0,0,1,3.637,7.273H7.514a.728.728,0,1,0,0-1.455H3.637A3.641,3.641,0,0,0,0,9.454v29.09a3.642,3.642,0,0,0,3.637,3.637H14.546v4.363H9.455a.728.728,0,1,0,0,1.456h29.09a.728.728,0,0,0,0-1.456H33.453V42.181H44.362A3.642,3.642,0,0,0,48,38.544V9.454A3.639,3.639,0,0,0,44.363,5.818ZM32,46.544H16V42.181H32Zm14.546-8a2.185,2.185,0,0,1-2.183,2.182H3.636a2.185,2.185,0,0,1-2.182-2.182V37.331H46.545v1.213Z" fill="#1a171b"/>
    <path d="M24.727,17.653a.728.728,0,0,0-1.456,0V29.29a.728.728,0,0,0,1.456,0Z" fill="#1a171b"/>
  </g>
</svg>
